<?xml version="1.0" standalone="no"?>
<!DOCTYPE svg PUBLIC "-//W3C//DTD SVG 20010904//EN"
 "http://www.w3.org/TR/2001/REC-SVG-20010904/DTD/svg10.dtd">
<svg version="1.0" xmlns="http://www.w3.org/2000/svg"
 width="116.000000pt" height="116.000000pt" viewBox="0 0 116.000000 116.000000"
 preserveAspectRatio="xMidYMid meet">
<metadata>
Created by potrace 1.14, written by Peter Selinger 2001-2017
</metadata>
<g transform="translate(0.000000,116.000000) scale(0.100000,-0.100000)"
fill="#000000" stroke="none">
<path d="M145 1016 c-15 -11 -18 -25 -17 -86 1 -45 -3 -79 -11 -89 -6 -8 -7
-12 -1 -8 7 4 10 -13 8 -51 -1 -31 -3 -57 -4 -57 -5 0 -4 -217 1 -220 3 -2 6
-72 6 -155 1 -83 3 -154 6 -156 3 -3 19 2 36 10 41 22 58 20 67 -6 3 -12 12
-27 18 -34 6 -6 18 -22 26 -34 41 -63 24 -60 334 -60 l285 0 -4 21 c-3 12 -12
30 -21 40 -10 11 -14 19 -9 19 4 0 -3 8 -16 17 -52 38 -65 44 -384 160 -201
74 -290 148 -300 253 -2 14 -4 25 -5 25 -2 0 -4 19 -5 42 -1 27 2 40 8 36 6
-3 7 -1 3 5 -4 6 0 25 9 42 8 16 15 32 14 36 -1 10 105 103 113 98 4 -3 8 -1
8 5 0 6 30 20 68 31 137 43 308 21 401 -51 30 -24 41 -24 41 1 0 11 5 20 10
20 6 0 9 6 8 13 -4 16 55 22 82 7 11 -6 20 -21 20 -33 0 -12 7 -34 14 -49 8
-16 14 -36 14 -45 0 -10 5 -31 13 -48 7 -16 14 -34 14 -40 1 -5 4 -17 7 -25
34 -101 32 -107 -42 -126 -32 -8 -56 6 -69 41 -13 37 -137 169 -180 194 -48
27 -135 51 -183 51 -59 0 -103 -17 -148 -58 -27 -25 -34 -40 -36 -74 -4 -85
60 -130 303 -213 170 -57 313 -126 358 -170 19 -19 43 -54 53 -76 17 -37 20
-39 25 -18 3 12 2 30 -3 38 -4 9 -8 183 -8 386 0 369 0 369 -22 387 -21 17
-54 18 -454 18 -350 0 -436 -3 -451 -14z"/>
</g>
</svg>
